# xmcd
#
# Track frame offsets:
#	150
#	4750
#	18942
#	30555
#	42382
#	44357
#	55487
#	66157
#	70922
#	81370
#	97125
#	108350
#	109827
#	116752
#	118165
#	134072
#	145077
#	146547
#	147912
#	157980
#	159702
#	161062
#	171847
#	182040
#	183927
#	189045
#	199170
#	210115
#	211580
#	213187
#	223400
#	224415
#
# Disc length: 3126 seconds
# Revision: 5
# Processed by: cddbd v1.5.2PL0 Copyright (c) Steve Scherf et al.
# Submitted via: dBpowerAMP V12.0
#
DISCID=e20c3420
DTITLE=Marty Robbins - Country 1951-1958, CD05 - CD05
DYEAR=1991
DGENRE=Country
TTITLE0=The Story of My Life
TTITLE1=The Story of My Life
TTITLE2=The Story of My Life
TTITLE3=Once-A-Week Date
TTITLE4=Once-A-Week Date
TTITLE5=Once-A-Week Date
TTITLE6=She Was Only Seventeen (He Was One Year More)
TTITLE7=She Was Only Seventeen (He Was One Year More)
TTITLE8=She Was Only Seventeen (He Was One Year More)
TTITLE9=She Was Only Seventeen (He Was One Year More)
TTITLE10=She Was Only Seventeen (He Was One Year More)
TTITLE11=Wedding Bells
TTITLE12=Wedding Bells
TTITLE13=Wedding Bells
TTITLE14=Wedding Bells
TTITLE15=Wedding Bells
TTITLE16=Shackles and Chains
TTITLE17=Shackles and Chains
TTITLE18=Shackles and Chains
TTITLE19=Shackles and Chains
TTITLE20=Shackles and Chains
TTITLE21=Shackles and Chains
TTITLE22=Oh, How I Miss You (Since You Went Away)
TTITLE23=Footprints in the Snow
TTITLE24=Footprints in the Snow
TTITLE25=Footprints in the Snow
TTITLE26=Wedding Bells
TTITLE27=Wedding Bells
TTITLE28=Wedding Bells
TTITLE29=Wedding Bells
TTITLE30=It's Driving Me Crazy
TTITLE31=It's Driving Me Crazy
EXTD=
EXTT0=
EXTT1=
EXTT2=
EXTT3=
EXTT4=
EXTT5=
EXTT6=
EXTT7=
EXTT8=
EXTT9=
EXTT10=
EXTT11=
EXTT12=
EXTT13=
EXTT14=
EXTT15=
EXTT16=
EXTT17=
EXTT18=
EXTT19=
EXTT20=
EXTT21=
EXTT22=
EXTT23=
EXTT24=
EXTT25=
EXTT26=
EXTT27=
EXTT28=
EXTT29=
EXTT30=
EXTT31=
PLAYORDER=
